<mxfile host="app.diagrams.net" modified="2023-08-14T15:00:43.231Z" agent="Mozilla/5.0 (Windows NT 10.0; Win64; x64) AppleWebKit/537.36 (KHTML, like Gecko) Chrome/114.0.0.0 Safari/537.36 OPR/100.0.0.0" etag="2ZN7zXW3L6JRfpmHuAzD" version="21.6.8" type="google">
  <diagram id="C5RBs43oDa-KdzZeNtuy" name="Page-1">
    <mxGraphModel grid="1" page="1" gridSize="10" guides="1" tooltips="1" connect="1" arrows="1" fold="1" pageScale="1" pageWidth="827" pageHeight="1169" math="0" shadow="0">
      <root>
        <mxCell id="WIyWlLk6GJQsqaUBKTNV-0" />
        <mxCell id="WIyWlLk6GJQsqaUBKTNV-1" parent="WIyWlLk6GJQsqaUBKTNV-0" />
        <mxCell id="-fiAgcSim40ZvNmaRCxb-101" style="edgeStyle=none;shape=connector;rounded=0;orthogonalLoop=1;jettySize=auto;html=1;exitX=0.5;exitY=1;exitDx=0;exitDy=0;entryX=1;entryY=0.5;entryDx=0;entryDy=0;labelBackgroundColor=default;strokeColor=default;fontFamily=Helvetica;fontSize=11;fontColor=default;endArrow=none;endFill=0;" edge="1" parent="WIyWlLk6GJQsqaUBKTNV-1" source="-fiAgcSim40ZvNmaRCxb-84" target="-fiAgcSim40ZvNmaRCxb-98">
          <mxGeometry relative="1" as="geometry" />
        </mxCell>
        <mxCell id="-fiAgcSim40ZvNmaRCxb-84" value="Pessoa" style="whiteSpace=wrap;html=1;align=center;fontFamily=Helvetica;fontSize=11;fillColor=#a20025;strokeColor=#6F0000;fontColor=#ffffff;" vertex="1" parent="WIyWlLk6GJQsqaUBKTNV-1">
          <mxGeometry x="360" y="190" width="100" height="40" as="geometry" />
        </mxCell>
        <mxCell id="-fiAgcSim40ZvNmaRCxb-94" style="edgeStyle=none;shape=connector;rounded=0;orthogonalLoop=1;jettySize=auto;html=1;exitX=1;exitY=1;exitDx=0;exitDy=0;labelBackgroundColor=default;strokeColor=default;fontFamily=Helvetica;fontSize=11;fontColor=default;endArrow=none;endFill=0;" edge="1" parent="WIyWlLk6GJQsqaUBKTNV-1" source="-fiAgcSim40ZvNmaRCxb-85">
          <mxGeometry relative="1" as="geometry">
            <mxPoint x="410" y="190" as="targetPoint" />
            <Array as="points">
              <mxPoint x="410" y="190" />
            </Array>
          </mxGeometry>
        </mxCell>
        <mxCell id="-fiAgcSim40ZvNmaRCxb-85" value="cpf" style="ellipse;whiteSpace=wrap;html=1;align=center;fontFamily=Helvetica;fontSize=11;fontColor=default;" vertex="1" parent="WIyWlLk6GJQsqaUBKTNV-1">
          <mxGeometry x="300" y="140" width="40" height="20" as="geometry" />
        </mxCell>
        <mxCell id="-fiAgcSim40ZvNmaRCxb-95" style="edgeStyle=none;shape=connector;rounded=0;orthogonalLoop=1;jettySize=auto;html=1;exitX=1;exitY=0.5;exitDx=0;exitDy=0;labelBackgroundColor=default;strokeColor=default;fontFamily=Helvetica;fontSize=11;fontColor=default;endArrow=none;endFill=0;" edge="1" parent="WIyWlLk6GJQsqaUBKTNV-1" source="-fiAgcSim40ZvNmaRCxb-86">
          <mxGeometry relative="1" as="geometry">
            <mxPoint x="410" y="190" as="targetPoint" />
          </mxGeometry>
        </mxCell>
        <mxCell id="-fiAgcSim40ZvNmaRCxb-86" value="id" style="ellipse;whiteSpace=wrap;html=1;align=center;fontStyle=4;fontFamily=Helvetica;fontSize=11;fontColor=default;" vertex="1" parent="WIyWlLk6GJQsqaUBKTNV-1">
          <mxGeometry x="289" y="169" width="40" height="20" as="geometry" />
        </mxCell>
        <mxCell id="-fiAgcSim40ZvNmaRCxb-93" style="edgeStyle=none;shape=connector;rounded=0;orthogonalLoop=1;jettySize=auto;html=1;exitX=0.5;exitY=1;exitDx=0;exitDy=0;entryX=0.25;entryY=0;entryDx=0;entryDy=0;labelBackgroundColor=default;strokeColor=default;fontFamily=Helvetica;fontSize=11;fontColor=default;endArrow=none;endFill=0;" edge="1" parent="WIyWlLk6GJQsqaUBKTNV-1" source="-fiAgcSim40ZvNmaRCxb-87" target="-fiAgcSim40ZvNmaRCxb-84">
          <mxGeometry relative="1" as="geometry">
            <Array as="points">
              <mxPoint x="410" y="190" />
            </Array>
          </mxGeometry>
        </mxCell>
        <mxCell id="-fiAgcSim40ZvNmaRCxb-87" value="rg" style="ellipse;whiteSpace=wrap;html=1;align=center;fontFamily=Helvetica;fontSize=11;fontColor=default;" vertex="1" parent="WIyWlLk6GJQsqaUBKTNV-1">
          <mxGeometry x="340" y="120" width="40" height="20" as="geometry" />
        </mxCell>
        <mxCell id="-fiAgcSim40ZvNmaRCxb-92" style="edgeStyle=none;shape=connector;rounded=0;orthogonalLoop=1;jettySize=auto;html=1;exitX=0.5;exitY=1;exitDx=0;exitDy=0;entryX=0.5;entryY=0;entryDx=0;entryDy=0;labelBackgroundColor=default;strokeColor=default;fontFamily=Helvetica;fontSize=11;fontColor=default;endArrow=none;endFill=0;" edge="1" parent="WIyWlLk6GJQsqaUBKTNV-1" source="-fiAgcSim40ZvNmaRCxb-88" target="-fiAgcSim40ZvNmaRCxb-84">
          <mxGeometry relative="1" as="geometry" />
        </mxCell>
        <mxCell id="-fiAgcSim40ZvNmaRCxb-88" value="Nome" style="ellipse;whiteSpace=wrap;html=1;align=center;fontFamily=Helvetica;fontSize=11;fontColor=default;" vertex="1" parent="WIyWlLk6GJQsqaUBKTNV-1">
          <mxGeometry x="388.5" y="110" width="50" height="20" as="geometry" />
        </mxCell>
        <mxCell id="-fiAgcSim40ZvNmaRCxb-96" style="edgeStyle=none;shape=connector;rounded=0;orthogonalLoop=1;jettySize=auto;html=1;exitX=0;exitY=1;exitDx=0;exitDy=0;labelBackgroundColor=default;strokeColor=default;fontFamily=Helvetica;fontSize=11;fontColor=default;endArrow=none;endFill=0;" edge="1" parent="WIyWlLk6GJQsqaUBKTNV-1" source="-fiAgcSim40ZvNmaRCxb-89">
          <mxGeometry relative="1" as="geometry">
            <mxPoint x="410" y="190" as="targetPoint" />
          </mxGeometry>
        </mxCell>
        <mxCell id="-fiAgcSim40ZvNmaRCxb-89" value="telefone" style="ellipse;shape=doubleEllipse;margin=3;whiteSpace=wrap;html=1;align=center;fontFamily=Helvetica;fontSize=11;fontColor=default;" vertex="1" parent="WIyWlLk6GJQsqaUBKTNV-1">
          <mxGeometry x="450" y="120" width="60" height="30" as="geometry" />
        </mxCell>
        <mxCell id="-fiAgcSim40ZvNmaRCxb-97" style="edgeStyle=none;shape=connector;rounded=0;orthogonalLoop=1;jettySize=auto;html=1;exitX=0;exitY=0.5;exitDx=0;exitDy=0;labelBackgroundColor=default;strokeColor=default;fontFamily=Helvetica;fontSize=11;fontColor=default;endArrow=none;endFill=0;" edge="1" parent="WIyWlLk6GJQsqaUBKTNV-1" source="-fiAgcSim40ZvNmaRCxb-90">
          <mxGeometry relative="1" as="geometry">
            <mxPoint x="410" y="190" as="targetPoint" />
          </mxGeometry>
        </mxCell>
        <mxCell id="-fiAgcSim40ZvNmaRCxb-90" value="email" style="ellipse;shape=doubleEllipse;margin=3;whiteSpace=wrap;html=1;align=center;fontFamily=Helvetica;fontSize=11;fontColor=default;" vertex="1" parent="WIyWlLk6GJQsqaUBKTNV-1">
          <mxGeometry x="480" y="160" width="40" height="30" as="geometry" />
        </mxCell>
        <mxCell id="-fiAgcSim40ZvNmaRCxb-105" style="edgeStyle=orthogonalEdgeStyle;shape=connector;rounded=0;orthogonalLoop=1;jettySize=auto;html=1;exitX=0;exitY=0.75;exitDx=0;exitDy=0;entryX=0.25;entryY=0;entryDx=0;entryDy=0;labelBackgroundColor=default;strokeColor=default;fontFamily=Helvetica;fontSize=11;fontColor=default;endArrow=none;endFill=0;" edge="1" parent="WIyWlLk6GJQsqaUBKTNV-1" source="-fiAgcSim40ZvNmaRCxb-98" target="-fiAgcSim40ZvNmaRCxb-100">
          <mxGeometry relative="1" as="geometry" />
        </mxCell>
        <mxCell id="-fiAgcSim40ZvNmaRCxb-106" style="edgeStyle=orthogonalEdgeStyle;shape=connector;rounded=0;orthogonalLoop=1;jettySize=auto;html=1;exitX=0;exitY=0.25;exitDx=0;exitDy=0;labelBackgroundColor=default;strokeColor=default;fontFamily=Helvetica;fontSize=11;fontColor=default;endArrow=none;endFill=0;" edge="1" parent="WIyWlLk6GJQsqaUBKTNV-1" source="-fiAgcSim40ZvNmaRCxb-98" target="-fiAgcSim40ZvNmaRCxb-99">
          <mxGeometry relative="1" as="geometry">
            <Array as="points">
              <mxPoint x="398" y="297" />
              <mxPoint x="330" y="297" />
            </Array>
          </mxGeometry>
        </mxCell>
        <mxCell id="-fiAgcSim40ZvNmaRCxb-98" value="" style="triangle;whiteSpace=wrap;html=1;fontFamily=Helvetica;fontSize=11;fontColor=default;fillColor=default;rotation=-90;" vertex="1" parent="WIyWlLk6GJQsqaUBKTNV-1">
          <mxGeometry x="395" y="230" width="30" height="50" as="geometry" />
        </mxCell>
        <mxCell id="-fiAgcSim40ZvNmaRCxb-110" style="edgeStyle=orthogonalEdgeStyle;shape=connector;rounded=0;orthogonalLoop=1;jettySize=auto;html=1;exitX=0.5;exitY=1;exitDx=0;exitDy=0;entryX=0.5;entryY=0;entryDx=0;entryDy=0;labelBackgroundColor=default;strokeColor=default;fontFamily=Helvetica;fontSize=11;fontColor=default;endArrow=none;endFill=0;" edge="1" parent="WIyWlLk6GJQsqaUBKTNV-1" source="-fiAgcSim40ZvNmaRCxb-99" target="-fiAgcSim40ZvNmaRCxb-107">
          <mxGeometry relative="1" as="geometry" />
        </mxCell>
        <mxCell id="-fiAgcSim40ZvNmaRCxb-249" style="edgeStyle=orthogonalEdgeStyle;shape=connector;rounded=0;orthogonalLoop=1;jettySize=auto;html=1;exitX=0;exitY=0.5;exitDx=0;exitDy=0;entryX=1;entryY=0.5;entryDx=0;entryDy=0;labelBackgroundColor=default;strokeColor=default;fontFamily=Helvetica;fontSize=11;fontColor=default;endArrow=none;endFill=0;" edge="1" parent="WIyWlLk6GJQsqaUBKTNV-1" source="-fiAgcSim40ZvNmaRCxb-99" target="-fiAgcSim40ZvNmaRCxb-247">
          <mxGeometry relative="1" as="geometry" />
        </mxCell>
        <mxCell id="-fiAgcSim40ZvNmaRCxb-99" value="Cliente" style="whiteSpace=wrap;html=1;align=center;fontFamily=Helvetica;fontSize=11;fontColor=#ffffff;fillColor=#0050ef;strokeColor=#001DBC;" vertex="1" parent="WIyWlLk6GJQsqaUBKTNV-1">
          <mxGeometry x="260" y="324" width="100" height="40" as="geometry" />
        </mxCell>
        <mxCell id="-fiAgcSim40ZvNmaRCxb-113" style="edgeStyle=orthogonalEdgeStyle;shape=connector;rounded=0;orthogonalLoop=1;jettySize=auto;html=1;exitX=0.25;exitY=1;exitDx=0;exitDy=0;entryX=1;entryY=0.5;entryDx=0;entryDy=0;labelBackgroundColor=default;strokeColor=default;fontFamily=Helvetica;fontSize=11;fontColor=default;endArrow=none;endFill=0;" edge="1" parent="WIyWlLk6GJQsqaUBKTNV-1" source="-fiAgcSim40ZvNmaRCxb-100" target="-fiAgcSim40ZvNmaRCxb-109">
          <mxGeometry relative="1" as="geometry" />
        </mxCell>
        <mxCell id="-fiAgcSim40ZvNmaRCxb-212" style="edgeStyle=orthogonalEdgeStyle;shape=connector;rounded=0;orthogonalLoop=1;jettySize=auto;html=1;exitX=0.75;exitY=1;exitDx=0;exitDy=0;entryX=0.5;entryY=0;entryDx=0;entryDy=0;labelBackgroundColor=default;strokeColor=default;fontFamily=Helvetica;fontSize=11;fontColor=default;endArrow=none;endFill=0;" edge="1" parent="WIyWlLk6GJQsqaUBKTNV-1" source="-fiAgcSim40ZvNmaRCxb-100" target="-fiAgcSim40ZvNmaRCxb-203">
          <mxGeometry relative="1" as="geometry" />
        </mxCell>
        <mxCell id="-fiAgcSim40ZvNmaRCxb-100" value="Funcionário" style="whiteSpace=wrap;html=1;align=center;fontFamily=Helvetica;fontSize=11;fontColor=#ffffff;fillColor=#0050ef;strokeColor=#001DBC;" vertex="1" parent="WIyWlLk6GJQsqaUBKTNV-1">
          <mxGeometry x="460" y="324" width="100" height="40" as="geometry" />
        </mxCell>
        <mxCell id="-fiAgcSim40ZvNmaRCxb-112" style="edgeStyle=orthogonalEdgeStyle;shape=connector;rounded=0;orthogonalLoop=1;jettySize=auto;html=1;exitX=0.5;exitY=1;exitDx=0;exitDy=0;entryX=0.5;entryY=0;entryDx=0;entryDy=0;labelBackgroundColor=default;strokeColor=default;fontFamily=Helvetica;fontSize=11;fontColor=default;endArrow=none;endFill=0;" edge="1" parent="WIyWlLk6GJQsqaUBKTNV-1" source="-fiAgcSim40ZvNmaRCxb-107" target="-fiAgcSim40ZvNmaRCxb-108">
          <mxGeometry relative="1" as="geometry" />
        </mxCell>
        <mxCell id="-fiAgcSim40ZvNmaRCxb-107" value="possui" style="shape=rhombus;perimeter=rhombusPerimeter;whiteSpace=wrap;html=1;align=center;fontFamily=Helvetica;fontSize=11;fontColor=#ffffff;fillColor=#a0522d;strokeColor=#6D1F00;" vertex="1" parent="WIyWlLk6GJQsqaUBKTNV-1">
          <mxGeometry x="274.5" y="416" width="71" height="40" as="geometry" />
        </mxCell>
        <mxCell id="-fiAgcSim40ZvNmaRCxb-142" style="edgeStyle=orthogonalEdgeStyle;shape=connector;rounded=0;orthogonalLoop=1;jettySize=auto;html=1;exitX=0.5;exitY=1;exitDx=0;exitDy=0;entryX=0.5;entryY=0;entryDx=0;entryDy=0;labelBackgroundColor=default;strokeColor=default;fontFamily=Helvetica;fontSize=11;fontColor=default;endArrow=none;endFill=0;" edge="1" parent="WIyWlLk6GJQsqaUBKTNV-1" source="-fiAgcSim40ZvNmaRCxb-108" target="-fiAgcSim40ZvNmaRCxb-140">
          <mxGeometry relative="1" as="geometry" />
        </mxCell>
        <mxCell id="-fiAgcSim40ZvNmaRCxb-108" value="Venda" style="whiteSpace=wrap;html=1;align=center;fontFamily=Helvetica;fontSize=11;fontColor=#ffffff;fillColor=#008a00;strokeColor=#005700;" vertex="1" parent="WIyWlLk6GJQsqaUBKTNV-1">
          <mxGeometry x="260" y="510" width="100" height="40" as="geometry" />
        </mxCell>
        <mxCell id="-fiAgcSim40ZvNmaRCxb-114" style="edgeStyle=orthogonalEdgeStyle;shape=connector;rounded=0;orthogonalLoop=1;jettySize=auto;html=1;exitX=0;exitY=0.5;exitDx=0;exitDy=0;entryX=1;entryY=0.5;entryDx=0;entryDy=0;labelBackgroundColor=default;strokeColor=default;fontFamily=Helvetica;fontSize=11;fontColor=default;endArrow=none;endFill=0;" edge="1" parent="WIyWlLk6GJQsqaUBKTNV-1" source="-fiAgcSim40ZvNmaRCxb-109" target="-fiAgcSim40ZvNmaRCxb-108">
          <mxGeometry relative="1" as="geometry">
            <Array as="points">
              <mxPoint x="370" y="387" />
              <mxPoint x="370" y="530" />
            </Array>
          </mxGeometry>
        </mxCell>
        <mxCell id="-fiAgcSim40ZvNmaRCxb-109" value="confirmar" style="shape=rhombus;perimeter=rhombusPerimeter;whiteSpace=wrap;html=1;align=center;fontFamily=Helvetica;fontSize=11;fontColor=#ffffff;fillColor=#a0522d;strokeColor=#6D1F00;" vertex="1" parent="WIyWlLk6GJQsqaUBKTNV-1">
          <mxGeometry x="381" y="367" width="71" height="40" as="geometry" />
        </mxCell>
        <mxCell id="-fiAgcSim40ZvNmaRCxb-120" style="shape=connector;rounded=0;orthogonalLoop=1;jettySize=auto;html=1;exitX=1;exitY=0.5;exitDx=0;exitDy=0;entryX=0;entryY=0.5;entryDx=0;entryDy=0;labelBackgroundColor=default;strokeColor=default;fontFamily=Helvetica;fontSize=11;fontColor=default;endArrow=none;endFill=0;" edge="1" parent="WIyWlLk6GJQsqaUBKTNV-1" source="-fiAgcSim40ZvNmaRCxb-115" target="-fiAgcSim40ZvNmaRCxb-108">
          <mxGeometry relative="1" as="geometry" />
        </mxCell>
        <mxCell id="-fiAgcSim40ZvNmaRCxb-115" value="id" style="ellipse;whiteSpace=wrap;html=1;align=center;fontStyle=4;fontFamily=Helvetica;fontSize=11;fontColor=default;" vertex="1" parent="WIyWlLk6GJQsqaUBKTNV-1">
          <mxGeometry x="185" y="500" width="40" height="20" as="geometry" />
        </mxCell>
        <mxCell id="-fiAgcSim40ZvNmaRCxb-121" style="shape=connector;rounded=0;orthogonalLoop=1;jettySize=auto;html=1;exitX=1;exitY=0.5;exitDx=0;exitDy=0;labelBackgroundColor=default;strokeColor=default;fontFamily=Helvetica;fontSize=11;fontColor=default;endArrow=none;endFill=0;" edge="1" parent="WIyWlLk6GJQsqaUBKTNV-1" source="-fiAgcSim40ZvNmaRCxb-117">
          <mxGeometry relative="1" as="geometry">
            <mxPoint x="260" y="530" as="targetPoint" />
          </mxGeometry>
        </mxCell>
        <mxCell id="-fiAgcSim40ZvNmaRCxb-117" value="data_criação" style="ellipse;whiteSpace=wrap;html=1;align=center;fontFamily=Helvetica;fontSize=11;fontColor=default;" vertex="1" parent="WIyWlLk6GJQsqaUBKTNV-1">
          <mxGeometry x="150" y="530" width="80" height="23" as="geometry" />
        </mxCell>
        <mxCell id="-fiAgcSim40ZvNmaRCxb-119" style="shape=connector;rounded=0;orthogonalLoop=1;jettySize=auto;html=1;exitX=0.5;exitY=1;exitDx=0;exitDy=0;entryX=0;entryY=0.5;entryDx=0;entryDy=0;labelBackgroundColor=default;strokeColor=default;fontFamily=Helvetica;fontSize=11;fontColor=default;endArrow=none;endFill=0;" edge="1" parent="WIyWlLk6GJQsqaUBKTNV-1" source="-fiAgcSim40ZvNmaRCxb-118" target="-fiAgcSim40ZvNmaRCxb-108">
          <mxGeometry relative="1" as="geometry" />
        </mxCell>
        <mxCell id="-fiAgcSim40ZvNmaRCxb-118" value="data" style="ellipse;whiteSpace=wrap;html=1;align=center;fontFamily=Helvetica;fontSize=11;fontColor=default;" vertex="1" parent="WIyWlLk6GJQsqaUBKTNV-1">
          <mxGeometry x="223" y="476" width="40" height="20" as="geometry" />
        </mxCell>
        <mxCell id="-fiAgcSim40ZvNmaRCxb-122" value="Função" style="whiteSpace=wrap;html=1;align=center;fontFamily=Helvetica;fontSize=11;fillColor=#66FFFF;strokeColor=#10739e;" vertex="1" parent="WIyWlLk6GJQsqaUBKTNV-1">
          <mxGeometry x="590" y="210" width="100" height="40" as="geometry" />
        </mxCell>
        <mxCell id="-fiAgcSim40ZvNmaRCxb-125" style="edgeStyle=orthogonalEdgeStyle;shape=connector;rounded=0;orthogonalLoop=1;jettySize=auto;html=1;exitX=0.5;exitY=0;exitDx=0;exitDy=0;entryX=0.75;entryY=1;entryDx=0;entryDy=0;labelBackgroundColor=default;strokeColor=default;fontFamily=Helvetica;fontSize=11;fontColor=default;endArrow=none;endFill=0;" edge="1" parent="WIyWlLk6GJQsqaUBKTNV-1" source="-fiAgcSim40ZvNmaRCxb-123" target="-fiAgcSim40ZvNmaRCxb-122">
          <mxGeometry relative="1" as="geometry" />
        </mxCell>
        <mxCell id="-fiAgcSim40ZvNmaRCxb-236" style="edgeStyle=orthogonalEdgeStyle;shape=connector;rounded=0;orthogonalLoop=1;jettySize=auto;html=1;exitX=0;exitY=0.5;exitDx=0;exitDy=0;entryX=1;entryY=0.25;entryDx=0;entryDy=0;labelBackgroundColor=default;strokeColor=default;fontFamily=Helvetica;fontSize=11;fontColor=default;endArrow=none;endFill=0;" edge="1" parent="WIyWlLk6GJQsqaUBKTNV-1" source="-fiAgcSim40ZvNmaRCxb-123" target="-fiAgcSim40ZvNmaRCxb-100">
          <mxGeometry relative="1" as="geometry" />
        </mxCell>
        <mxCell id="-fiAgcSim40ZvNmaRCxb-123" value="possui" style="shape=rhombus;perimeter=rhombusPerimeter;whiteSpace=wrap;html=1;align=center;fontFamily=Helvetica;fontSize=11;fontColor=#ffffff;fillColor=#a0522d;strokeColor=#6D1F00;" vertex="1" parent="WIyWlLk6GJQsqaUBKTNV-1">
          <mxGeometry x="617.5" y="300" width="71" height="40" as="geometry" />
        </mxCell>
        <mxCell id="-fiAgcSim40ZvNmaRCxb-129" style="shape=connector;rounded=0;orthogonalLoop=1;jettySize=auto;html=1;exitX=0.5;exitY=1;exitDx=0;exitDy=0;entryX=0.5;entryY=0;entryDx=0;entryDy=0;labelBackgroundColor=default;strokeColor=default;fontFamily=Helvetica;fontSize=11;fontColor=default;endArrow=none;endFill=0;" edge="1" parent="WIyWlLk6GJQsqaUBKTNV-1" source="-fiAgcSim40ZvNmaRCxb-126" target="-fiAgcSim40ZvNmaRCxb-100">
          <mxGeometry relative="1" as="geometry" />
        </mxCell>
        <mxCell id="-fiAgcSim40ZvNmaRCxb-126" value="id" style="ellipse;whiteSpace=wrap;html=1;align=center;fontStyle=4;fontFamily=Helvetica;fontSize=11;fontColor=default;" vertex="1" parent="WIyWlLk6GJQsqaUBKTNV-1">
          <mxGeometry x="520" y="270" width="40" height="20" as="geometry" />
        </mxCell>
        <mxCell id="-fiAgcSim40ZvNmaRCxb-134" style="shape=connector;rounded=0;orthogonalLoop=1;jettySize=auto;html=1;exitX=0.5;exitY=1;exitDx=0;exitDy=0;labelBackgroundColor=default;strokeColor=default;fontFamily=Helvetica;fontSize=11;fontColor=default;endArrow=none;endFill=0;" edge="1" parent="WIyWlLk6GJQsqaUBKTNV-1" source="-fiAgcSim40ZvNmaRCxb-127">
          <mxGeometry relative="1" as="geometry">
            <mxPoint x="640" y="210" as="targetPoint" />
          </mxGeometry>
        </mxCell>
        <mxCell id="-fiAgcSim40ZvNmaRCxb-127" value="id" style="ellipse;whiteSpace=wrap;html=1;align=center;fontStyle=4;fontFamily=Helvetica;fontSize=11;fontColor=default;" vertex="1" parent="WIyWlLk6GJQsqaUBKTNV-1">
          <mxGeometry x="635.5" y="160" width="40" height="20" as="geometry" />
        </mxCell>
        <mxCell id="-fiAgcSim40ZvNmaRCxb-130" style="shape=connector;rounded=0;orthogonalLoop=1;jettySize=auto;html=1;exitX=0;exitY=1;exitDx=0;exitDy=0;labelBackgroundColor=default;strokeColor=default;fontFamily=Helvetica;fontSize=11;fontColor=default;endArrow=none;endFill=0;entryX=0.5;entryY=0;entryDx=0;entryDy=0;" edge="1" parent="WIyWlLk6GJQsqaUBKTNV-1" source="-fiAgcSim40ZvNmaRCxb-128" target="-fiAgcSim40ZvNmaRCxb-100">
          <mxGeometry relative="1" as="geometry">
            <mxPoint x="510" y="320" as="targetPoint" />
          </mxGeometry>
        </mxCell>
        <mxCell id="-fiAgcSim40ZvNmaRCxb-128" value="salário" style="ellipse;whiteSpace=wrap;html=1;align=center;fontFamily=Helvetica;fontSize=11;fontColor=default;" vertex="1" parent="WIyWlLk6GJQsqaUBKTNV-1">
          <mxGeometry x="564.5" y="280" width="45.5" height="20" as="geometry" />
        </mxCell>
        <mxCell id="-fiAgcSim40ZvNmaRCxb-133" style="shape=connector;rounded=0;orthogonalLoop=1;jettySize=auto;html=1;exitX=1;exitY=1;exitDx=0;exitDy=0;entryX=0.5;entryY=0;entryDx=0;entryDy=0;labelBackgroundColor=default;strokeColor=default;fontFamily=Helvetica;fontSize=11;fontColor=default;endArrow=none;endFill=0;" edge="1" parent="WIyWlLk6GJQsqaUBKTNV-1" source="-fiAgcSim40ZvNmaRCxb-131" target="-fiAgcSim40ZvNmaRCxb-122">
          <mxGeometry relative="1" as="geometry" />
        </mxCell>
        <mxCell id="-fiAgcSim40ZvNmaRCxb-131" value="descrição" style="ellipse;whiteSpace=wrap;html=1;align=center;fontFamily=Helvetica;fontSize=11;fontColor=default;" vertex="1" parent="WIyWlLk6GJQsqaUBKTNV-1">
          <mxGeometry x="560" y="170" width="60" height="20" as="geometry" />
        </mxCell>
        <mxCell id="-fiAgcSim40ZvNmaRCxb-135" style="shape=connector;rounded=0;orthogonalLoop=1;jettySize=auto;html=1;exitX=0;exitY=1;exitDx=0;exitDy=0;entryX=0.5;entryY=0;entryDx=0;entryDy=0;labelBackgroundColor=default;strokeColor=default;fontFamily=Helvetica;fontSize=11;fontColor=default;endArrow=none;endFill=0;" edge="1" parent="WIyWlLk6GJQsqaUBKTNV-1" source="-fiAgcSim40ZvNmaRCxb-132" target="-fiAgcSim40ZvNmaRCxb-122">
          <mxGeometry relative="1" as="geometry" />
        </mxCell>
        <mxCell id="-fiAgcSim40ZvNmaRCxb-132" value="Nome" style="ellipse;whiteSpace=wrap;html=1;align=center;fontFamily=Helvetica;fontSize=11;fontColor=default;" vertex="1" parent="WIyWlLk6GJQsqaUBKTNV-1">
          <mxGeometry x="690" y="169" width="50" height="20" as="geometry" />
        </mxCell>
        <mxCell id="-fiAgcSim40ZvNmaRCxb-137" style="shape=connector;rounded=0;orthogonalLoop=1;jettySize=auto;html=1;exitX=1;exitY=1;exitDx=0;exitDy=0;entryX=0.5;entryY=0;entryDx=0;entryDy=0;labelBackgroundColor=default;strokeColor=default;fontFamily=Helvetica;fontSize=11;fontColor=default;endArrow=none;endFill=0;" edge="1" parent="WIyWlLk6GJQsqaUBKTNV-1" source="-fiAgcSim40ZvNmaRCxb-136" target="-fiAgcSim40ZvNmaRCxb-99">
          <mxGeometry relative="1" as="geometry" />
        </mxCell>
        <mxCell id="-fiAgcSim40ZvNmaRCxb-136" value="id" style="ellipse;whiteSpace=wrap;html=1;align=center;fontStyle=4;fontFamily=Helvetica;fontSize=11;fontColor=default;" vertex="1" parent="WIyWlLk6GJQsqaUBKTNV-1">
          <mxGeometry x="223" y="290" width="40" height="20" as="geometry" />
        </mxCell>
        <mxCell id="-fiAgcSim40ZvNmaRCxb-139" style="shape=connector;rounded=0;orthogonalLoop=1;jettySize=auto;html=1;exitX=0.5;exitY=1;exitDx=0;exitDy=0;entryX=0.5;entryY=0;entryDx=0;entryDy=0;labelBackgroundColor=default;strokeColor=default;fontFamily=Helvetica;fontSize=11;fontColor=default;endArrow=none;endFill=0;" edge="1" parent="WIyWlLk6GJQsqaUBKTNV-1" source="-fiAgcSim40ZvNmaRCxb-138" target="-fiAgcSim40ZvNmaRCxb-99">
          <mxGeometry relative="1" as="geometry" />
        </mxCell>
        <mxCell id="-fiAgcSim40ZvNmaRCxb-138" value="n_vendas" style="ellipse;whiteSpace=wrap;html=1;align=center;dashed=1;fontFamily=Helvetica;fontSize=11;fontColor=default;" vertex="1" parent="WIyWlLk6GJQsqaUBKTNV-1">
          <mxGeometry x="268" y="275" width="57" height="20" as="geometry" />
        </mxCell>
        <mxCell id="-fiAgcSim40ZvNmaRCxb-143" style="edgeStyle=orthogonalEdgeStyle;shape=connector;rounded=0;orthogonalLoop=1;jettySize=auto;html=1;exitX=0.5;exitY=1;exitDx=0;exitDy=0;entryX=0.5;entryY=0;entryDx=0;entryDy=0;labelBackgroundColor=default;strokeColor=default;fontFamily=Helvetica;fontSize=11;fontColor=default;endArrow=none;endFill=0;" edge="1" parent="WIyWlLk6GJQsqaUBKTNV-1" source="-fiAgcSim40ZvNmaRCxb-140" target="-fiAgcSim40ZvNmaRCxb-141">
          <mxGeometry relative="1" as="geometry" />
        </mxCell>
        <mxCell id="-fiAgcSim40ZvNmaRCxb-140" value="possui" style="shape=rhombus;perimeter=rhombusPerimeter;whiteSpace=wrap;html=1;align=center;fontFamily=Helvetica;fontSize=11;fontColor=#ffffff;fillColor=#a0522d;strokeColor=#6D1F00;" vertex="1" parent="WIyWlLk6GJQsqaUBKTNV-1">
          <mxGeometry x="274.5" y="610" width="71" height="40" as="geometry" />
        </mxCell>
        <mxCell id="-fiAgcSim40ZvNmaRCxb-155" style="edgeStyle=orthogonalEdgeStyle;shape=connector;rounded=0;orthogonalLoop=1;jettySize=auto;html=1;exitX=1;exitY=0.5;exitDx=0;exitDy=0;entryX=0;entryY=0.5;entryDx=0;entryDy=0;labelBackgroundColor=default;strokeColor=default;fontFamily=Helvetica;fontSize=11;fontColor=default;endArrow=none;endFill=0;" edge="1" parent="WIyWlLk6GJQsqaUBKTNV-1" source="-fiAgcSim40ZvNmaRCxb-141" target="-fiAgcSim40ZvNmaRCxb-154">
          <mxGeometry relative="1" as="geometry" />
        </mxCell>
        <mxCell id="-fiAgcSim40ZvNmaRCxb-141" value="Cobrança" style="whiteSpace=wrap;html=1;align=center;fontFamily=Helvetica;fontSize=11;fontColor=#ffffff;fillColor=#76608a;strokeColor=#432D57;" vertex="1" parent="WIyWlLk6GJQsqaUBKTNV-1">
          <mxGeometry x="260" y="710" width="100" height="40" as="geometry" />
        </mxCell>
        <mxCell id="-fiAgcSim40ZvNmaRCxb-152" style="shape=connector;rounded=0;orthogonalLoop=1;jettySize=auto;html=1;exitX=1;exitY=0.5;exitDx=0;exitDy=0;entryX=0;entryY=0.5;entryDx=0;entryDy=0;labelBackgroundColor=default;strokeColor=default;fontFamily=Helvetica;fontSize=11;fontColor=default;endArrow=none;endFill=0;" edge="1" parent="WIyWlLk6GJQsqaUBKTNV-1" source="-fiAgcSim40ZvNmaRCxb-144" target="-fiAgcSim40ZvNmaRCxb-141">
          <mxGeometry relative="1" as="geometry" />
        </mxCell>
        <mxCell id="-fiAgcSim40ZvNmaRCxb-144" value="id" style="ellipse;whiteSpace=wrap;html=1;align=center;fontStyle=4;fontFamily=Helvetica;fontSize=11;fontColor=default;" vertex="1" parent="WIyWlLk6GJQsqaUBKTNV-1">
          <mxGeometry x="186" y="730" width="40" height="20" as="geometry" />
        </mxCell>
        <mxCell id="-fiAgcSim40ZvNmaRCxb-151" style="shape=connector;rounded=0;orthogonalLoop=1;jettySize=auto;html=1;exitX=1;exitY=0.5;exitDx=0;exitDy=0;entryX=0;entryY=0.5;entryDx=0;entryDy=0;labelBackgroundColor=default;strokeColor=default;fontFamily=Helvetica;fontSize=11;fontColor=default;endArrow=none;endFill=0;" edge="1" parent="WIyWlLk6GJQsqaUBKTNV-1" source="-fiAgcSim40ZvNmaRCxb-145" target="-fiAgcSim40ZvNmaRCxb-141">
          <mxGeometry relative="1" as="geometry" />
        </mxCell>
        <mxCell id="-fiAgcSim40ZvNmaRCxb-145" value="valor" style="ellipse;whiteSpace=wrap;html=1;align=center;fontFamily=Helvetica;fontSize=11;fontColor=default;" vertex="1" parent="WIyWlLk6GJQsqaUBKTNV-1">
          <mxGeometry x="186" y="700" width="40" height="20" as="geometry" />
        </mxCell>
        <mxCell id="-fiAgcSim40ZvNmaRCxb-153" style="shape=connector;rounded=0;orthogonalLoop=1;jettySize=auto;html=1;exitX=1;exitY=0;exitDx=0;exitDy=0;entryX=0;entryY=0.5;entryDx=0;entryDy=0;labelBackgroundColor=default;strokeColor=default;fontFamily=Helvetica;fontSize=11;fontColor=default;endArrow=none;endFill=0;" edge="1" parent="WIyWlLk6GJQsqaUBKTNV-1" source="-fiAgcSim40ZvNmaRCxb-146" target="-fiAgcSim40ZvNmaRCxb-141">
          <mxGeometry relative="1" as="geometry" />
        </mxCell>
        <mxCell id="-fiAgcSim40ZvNmaRCxb-146" value="data" style="ellipse;whiteSpace=wrap;html=1;align=center;fontFamily=Helvetica;fontSize=11;fontColor=default;" vertex="1" parent="WIyWlLk6GJQsqaUBKTNV-1">
          <mxGeometry x="201" y="760" width="40" height="20" as="geometry" />
        </mxCell>
        <mxCell id="-fiAgcSim40ZvNmaRCxb-149" style="shape=connector;rounded=0;orthogonalLoop=1;jettySize=auto;html=1;exitX=0.5;exitY=1;exitDx=0;exitDy=0;entryX=0;entryY=0.5;entryDx=0;entryDy=0;labelBackgroundColor=default;strokeColor=default;fontFamily=Helvetica;fontSize=11;fontColor=default;endArrow=none;endFill=0;" edge="1" parent="WIyWlLk6GJQsqaUBKTNV-1" source="-fiAgcSim40ZvNmaRCxb-147" target="-fiAgcSim40ZvNmaRCxb-141">
          <mxGeometry relative="1" as="geometry" />
        </mxCell>
        <mxCell id="-fiAgcSim40ZvNmaRCxb-147" value="status" style="ellipse;whiteSpace=wrap;html=1;align=center;fontFamily=Helvetica;fontSize=11;fontColor=default;" vertex="1" parent="WIyWlLk6GJQsqaUBKTNV-1">
          <mxGeometry x="211" y="675" width="40" height="20" as="geometry" />
        </mxCell>
        <mxCell id="-fiAgcSim40ZvNmaRCxb-148" value="Forma de cobrança" style="whiteSpace=wrap;html=1;align=center;fontFamily=Helvetica;fontSize=11;fontColor=#FFFFFF;fillColor=#FA7A39;strokeColor=#C73500;" vertex="1" parent="WIyWlLk6GJQsqaUBKTNV-1">
          <mxGeometry x="491" y="710" width="100" height="40" as="geometry" />
        </mxCell>
        <mxCell id="-fiAgcSim40ZvNmaRCxb-156" style="edgeStyle=orthogonalEdgeStyle;shape=connector;rounded=0;orthogonalLoop=1;jettySize=auto;html=1;exitX=1;exitY=0.5;exitDx=0;exitDy=0;entryX=0;entryY=0.5;entryDx=0;entryDy=0;labelBackgroundColor=default;strokeColor=default;fontFamily=Helvetica;fontSize=11;fontColor=default;endArrow=none;endFill=0;" edge="1" parent="WIyWlLk6GJQsqaUBKTNV-1" source="-fiAgcSim40ZvNmaRCxb-154" target="-fiAgcSim40ZvNmaRCxb-148">
          <mxGeometry relative="1" as="geometry" />
        </mxCell>
        <mxCell id="-fiAgcSim40ZvNmaRCxb-158" style="edgeStyle=orthogonalEdgeStyle;shape=connector;rounded=0;orthogonalLoop=1;jettySize=auto;html=1;exitX=0.5;exitY=0;exitDx=0;exitDy=0;entryX=0.5;entryY=1;entryDx=0;entryDy=0;labelBackgroundColor=default;strokeColor=default;fontFamily=Helvetica;fontSize=11;fontColor=default;endArrow=none;endFill=0;" edge="1" parent="WIyWlLk6GJQsqaUBKTNV-1" source="-fiAgcSim40ZvNmaRCxb-154" target="-fiAgcSim40ZvNmaRCxb-157">
          <mxGeometry relative="1" as="geometry" />
        </mxCell>
        <mxCell id="-fiAgcSim40ZvNmaRCxb-154" value="possui" style="shape=rhombus;perimeter=rhombusPerimeter;whiteSpace=wrap;html=1;align=center;fontFamily=Helvetica;fontSize=11;fontColor=#ffffff;fillColor=#a0522d;strokeColor=#6D1F00;" vertex="1" parent="WIyWlLk6GJQsqaUBKTNV-1">
          <mxGeometry x="390" y="710" width="71" height="40" as="geometry" />
        </mxCell>
        <mxCell id="-fiAgcSim40ZvNmaRCxb-157" value="valor" style="ellipse;whiteSpace=wrap;html=1;align=center;fontFamily=Helvetica;fontSize=11;fontColor=default;" vertex="1" parent="WIyWlLk6GJQsqaUBKTNV-1">
          <mxGeometry x="405.5" y="670" width="40" height="20" as="geometry" />
        </mxCell>
        <mxCell id="-fiAgcSim40ZvNmaRCxb-165" style="shape=connector;rounded=0;orthogonalLoop=1;jettySize=auto;html=1;exitX=0.5;exitY=1;exitDx=0;exitDy=0;entryX=0.5;entryY=0;entryDx=0;entryDy=0;labelBackgroundColor=default;strokeColor=default;fontFamily=Helvetica;fontSize=11;fontColor=default;endArrow=none;endFill=0;" edge="1" parent="WIyWlLk6GJQsqaUBKTNV-1" source="-fiAgcSim40ZvNmaRCxb-159" target="-fiAgcSim40ZvNmaRCxb-148">
          <mxGeometry relative="1" as="geometry" />
        </mxCell>
        <mxCell id="-fiAgcSim40ZvNmaRCxb-159" value="id" style="ellipse;whiteSpace=wrap;html=1;align=center;fontStyle=4;fontFamily=Helvetica;fontSize=11;fontColor=default;" vertex="1" parent="WIyWlLk6GJQsqaUBKTNV-1">
          <mxGeometry x="571" y="670" width="40" height="20" as="geometry" />
        </mxCell>
        <mxCell id="-fiAgcSim40ZvNmaRCxb-163" style="edgeStyle=orthogonalEdgeStyle;shape=connector;rounded=0;orthogonalLoop=1;jettySize=auto;html=1;exitX=0.5;exitY=1;exitDx=0;exitDy=0;labelBackgroundColor=default;strokeColor=default;fontFamily=Helvetica;fontSize=11;fontColor=default;endArrow=none;endFill=0;" edge="1" parent="WIyWlLk6GJQsqaUBKTNV-1" source="-fiAgcSim40ZvNmaRCxb-161" target="-fiAgcSim40ZvNmaRCxb-148">
          <mxGeometry relative="1" as="geometry" />
        </mxCell>
        <mxCell id="-fiAgcSim40ZvNmaRCxb-161" value="descrição" style="ellipse;whiteSpace=wrap;html=1;align=center;fontFamily=Helvetica;fontSize=11;fontColor=default;" vertex="1" parent="WIyWlLk6GJQsqaUBKTNV-1">
          <mxGeometry x="511" y="650" width="60" height="20" as="geometry" />
        </mxCell>
        <mxCell id="-fiAgcSim40ZvNmaRCxb-164" style="shape=connector;rounded=0;orthogonalLoop=1;jettySize=auto;html=1;exitX=0.5;exitY=1;exitDx=0;exitDy=0;entryX=0.5;entryY=0;entryDx=0;entryDy=0;labelBackgroundColor=default;strokeColor=default;fontFamily=Helvetica;fontSize=11;fontColor=default;endArrow=none;endFill=0;" edge="1" parent="WIyWlLk6GJQsqaUBKTNV-1" source="-fiAgcSim40ZvNmaRCxb-162" target="-fiAgcSim40ZvNmaRCxb-148">
          <mxGeometry relative="1" as="geometry" />
        </mxCell>
        <mxCell id="-fiAgcSim40ZvNmaRCxb-162" value="Nome" style="ellipse;whiteSpace=wrap;html=1;align=center;fontFamily=Helvetica;fontSize=11;fontColor=default;" vertex="1" parent="WIyWlLk6GJQsqaUBKTNV-1">
          <mxGeometry x="471" y="670" width="50" height="20" as="geometry" />
        </mxCell>
        <mxCell id="-fiAgcSim40ZvNmaRCxb-173" value="Produto" style="whiteSpace=wrap;html=1;align=center;fontFamily=Helvetica;fontSize=11;fontColor=#ffffff;fillColor=#FF99CC;strokeColor=#FF99CC;" vertex="1" parent="WIyWlLk6GJQsqaUBKTNV-1">
          <mxGeometry x="710" y="520" width="100" height="40" as="geometry" />
        </mxCell>
        <mxCell id="-fiAgcSim40ZvNmaRCxb-180" style="shape=connector;rounded=0;orthogonalLoop=1;jettySize=auto;html=1;exitX=0.5;exitY=1;exitDx=0;exitDy=0;entryX=0.5;entryY=0;entryDx=0;entryDy=0;labelBackgroundColor=default;strokeColor=default;fontFamily=Helvetica;fontSize=11;fontColor=default;endArrow=none;endFill=0;" edge="1" parent="WIyWlLk6GJQsqaUBKTNV-1" source="-fiAgcSim40ZvNmaRCxb-174" target="-fiAgcSim40ZvNmaRCxb-173">
          <mxGeometry relative="1" as="geometry" />
        </mxCell>
        <mxCell id="-fiAgcSim40ZvNmaRCxb-174" value="id" style="ellipse;whiteSpace=wrap;html=1;align=center;fontStyle=4;fontFamily=Helvetica;fontSize=11;fontColor=default;" vertex="1" parent="WIyWlLk6GJQsqaUBKTNV-1">
          <mxGeometry x="761" y="458" width="40" height="20" as="geometry" />
        </mxCell>
        <mxCell id="-fiAgcSim40ZvNmaRCxb-179" style="shape=connector;rounded=0;orthogonalLoop=1;jettySize=auto;html=1;exitX=0.5;exitY=1;exitDx=0;exitDy=0;labelBackgroundColor=default;strokeColor=default;fontFamily=Helvetica;fontSize=11;fontColor=default;endArrow=none;endFill=0;entryX=0.5;entryY=0;entryDx=0;entryDy=0;" edge="1" parent="WIyWlLk6GJQsqaUBKTNV-1" source="-fiAgcSim40ZvNmaRCxb-175" target="-fiAgcSim40ZvNmaRCxb-173">
          <mxGeometry relative="1" as="geometry" />
        </mxCell>
        <mxCell id="-fiAgcSim40ZvNmaRCxb-175" value="valor" style="ellipse;whiteSpace=wrap;html=1;align=center;fontFamily=Helvetica;fontSize=11;fontColor=default;" vertex="1" parent="WIyWlLk6GJQsqaUBKTNV-1">
          <mxGeometry x="715.5" y="458" width="40" height="20" as="geometry" />
        </mxCell>
        <mxCell id="-fiAgcSim40ZvNmaRCxb-178" style="shape=connector;rounded=0;orthogonalLoop=1;jettySize=auto;html=1;exitX=0.5;exitY=1;exitDx=0;exitDy=0;entryX=0.5;entryY=0;entryDx=0;entryDy=0;labelBackgroundColor=default;strokeColor=default;fontFamily=Helvetica;fontSize=11;fontColor=default;endArrow=none;endFill=0;" edge="1" parent="WIyWlLk6GJQsqaUBKTNV-1" source="-fiAgcSim40ZvNmaRCxb-176" target="-fiAgcSim40ZvNmaRCxb-173">
          <mxGeometry relative="1" as="geometry" />
        </mxCell>
        <mxCell id="-fiAgcSim40ZvNmaRCxb-176" value="Nome" style="ellipse;whiteSpace=wrap;html=1;align=center;fontFamily=Helvetica;fontSize=11;fontColor=default;rotation=-30;" vertex="1" parent="WIyWlLk6GJQsqaUBKTNV-1">
          <mxGeometry x="660" y="478" width="50" height="20" as="geometry" />
        </mxCell>
        <mxCell id="-fiAgcSim40ZvNmaRCxb-181" style="shape=connector;rounded=0;orthogonalLoop=1;jettySize=auto;html=1;exitX=0.5;exitY=1;exitDx=0;exitDy=0;entryX=0.5;entryY=0;entryDx=0;entryDy=0;labelBackgroundColor=default;strokeColor=default;fontFamily=Helvetica;fontSize=11;fontColor=default;endArrow=none;endFill=0;" edge="1" parent="WIyWlLk6GJQsqaUBKTNV-1" source="-fiAgcSim40ZvNmaRCxb-177" target="-fiAgcSim40ZvNmaRCxb-173">
          <mxGeometry relative="1" as="geometry" />
        </mxCell>
        <mxCell id="-fiAgcSim40ZvNmaRCxb-177" value="descrição" style="ellipse;whiteSpace=wrap;html=1;align=center;fontFamily=Helvetica;fontSize=11;fontColor=default;rotation=20;" vertex="1" parent="WIyWlLk6GJQsqaUBKTNV-1">
          <mxGeometry x="806.5" y="458" width="60" height="20" as="geometry" />
        </mxCell>
        <mxCell id="-fiAgcSim40ZvNmaRCxb-208" style="shape=connector;rounded=0;orthogonalLoop=1;jettySize=auto;html=1;exitX=0.5;exitY=0;exitDx=0;exitDy=0;entryX=0.5;entryY=1;entryDx=0;entryDy=0;labelBackgroundColor=default;strokeColor=default;fontFamily=Helvetica;fontSize=11;fontColor=default;endArrow=none;endFill=0;" edge="1" parent="WIyWlLk6GJQsqaUBKTNV-1" source="-fiAgcSim40ZvNmaRCxb-182" target="-fiAgcSim40ZvNmaRCxb-204">
          <mxGeometry relative="1" as="geometry" />
        </mxCell>
        <mxCell id="-fiAgcSim40ZvNmaRCxb-182" value="qtde" style="ellipse;whiteSpace=wrap;html=1;align=center;fontFamily=Helvetica;fontSize=11;fontColor=default;rotation=20;" vertex="1" parent="WIyWlLk6GJQsqaUBKTNV-1">
          <mxGeometry x="477" y="569" width="40" height="20" as="geometry" />
        </mxCell>
        <mxCell id="-fiAgcSim40ZvNmaRCxb-190" style="edgeStyle=orthogonalEdgeStyle;shape=connector;rounded=0;orthogonalLoop=1;jettySize=auto;html=1;entryX=0;entryY=0.5;entryDx=0;entryDy=0;labelBackgroundColor=default;strokeColor=default;fontFamily=Helvetica;fontSize=11;fontColor=default;endArrow=none;endFill=0;exitX=1;exitY=0.5;exitDx=0;exitDy=0;" edge="1" parent="WIyWlLk6GJQsqaUBKTNV-1" source="-fiAgcSim40ZvNmaRCxb-204" target="-fiAgcSim40ZvNmaRCxb-173">
          <mxGeometry relative="1" as="geometry">
            <mxPoint x="590" y="540" as="sourcePoint" />
          </mxGeometry>
        </mxCell>
        <mxCell id="-fiAgcSim40ZvNmaRCxb-187" value="valor" style="ellipse;whiteSpace=wrap;html=1;align=center;fontFamily=Helvetica;fontSize=11;fontColor=default;rotation=-30;" vertex="1" parent="WIyWlLk6GJQsqaUBKTNV-1">
          <mxGeometry x="576" y="569" width="40" height="20" as="geometry" />
        </mxCell>
        <mxCell id="-fiAgcSim40ZvNmaRCxb-238" style="edgeStyle=orthogonalEdgeStyle;shape=connector;rounded=0;orthogonalLoop=1;jettySize=auto;html=1;exitX=0.5;exitY=1;exitDx=0;exitDy=0;entryX=1;entryY=0.5;entryDx=0;entryDy=0;labelBackgroundColor=default;strokeColor=default;fontFamily=Helvetica;fontSize=11;fontColor=default;endArrow=none;endFill=0;" edge="1" parent="WIyWlLk6GJQsqaUBKTNV-1" source="-fiAgcSim40ZvNmaRCxb-194" target="-fiAgcSim40ZvNmaRCxb-237">
          <mxGeometry relative="1" as="geometry" />
        </mxCell>
        <mxCell id="-fiAgcSim40ZvNmaRCxb-194" value="Pagamento" style="whiteSpace=wrap;html=1;align=center;fontFamily=Helvetica;fontSize=11;fillColor=#E287E5;strokeColor=#E287E5;fontColor=#ffffff;" vertex="1" parent="WIyWlLk6GJQsqaUBKTNV-1">
          <mxGeometry x="797.75" y="210" width="100" height="40" as="geometry" />
        </mxCell>
        <mxCell id="-fiAgcSim40ZvNmaRCxb-196" value="&lt;b&gt;&lt;font style=&quot;font-size: 9px;&quot;&gt;(0, N)&lt;/font&gt;&lt;/b&gt;" style="text;html=1;strokeColor=none;fillColor=none;align=center;verticalAlign=middle;whiteSpace=wrap;rounded=0;fontSize=11;fontFamily=Helvetica;fontColor=#FF0000;" vertex="1" parent="WIyWlLk6GJQsqaUBKTNV-1">
          <mxGeometry x="311" y="490" width="31" height="15" as="geometry" />
        </mxCell>
        <mxCell id="-fiAgcSim40ZvNmaRCxb-197" value="&lt;b&gt;&lt;font style=&quot;font-size: 9px;&quot;&gt;(0, 1)&lt;/font&gt;&lt;/b&gt;" style="text;html=1;strokeColor=none;fillColor=none;align=center;verticalAlign=middle;whiteSpace=wrap;rounded=0;fontSize=11;fontFamily=Helvetica;fontColor=#FF0000;" vertex="1" parent="WIyWlLk6GJQsqaUBKTNV-1">
          <mxGeometry x="312" y="692" width="31" height="15" as="geometry" />
        </mxCell>
        <mxCell id="-fiAgcSim40ZvNmaRCxb-198" value="&lt;b&gt;&lt;font style=&quot;font-size: 9px;&quot;&gt;(1, N)&lt;/font&gt;&lt;/b&gt;" style="text;html=1;strokeColor=none;fillColor=none;align=center;verticalAlign=middle;whiteSpace=wrap;rounded=0;fontSize=11;fontFamily=Helvetica;fontColor=#FF0000;" vertex="1" parent="WIyWlLk6GJQsqaUBKTNV-1">
          <mxGeometry x="311" y="553" width="31" height="15" as="geometry" />
        </mxCell>
        <mxCell id="-fiAgcSim40ZvNmaRCxb-200" value="&lt;b&gt;&lt;font style=&quot;font-size: 9px;&quot;&gt;(1, 1)&lt;/font&gt;&lt;/b&gt;" style="text;html=1;strokeColor=none;fillColor=none;align=center;verticalAlign=middle;whiteSpace=wrap;rounded=0;fontSize=11;fontFamily=Helvetica;fontColor=#FF0000;" vertex="1" parent="WIyWlLk6GJQsqaUBKTNV-1">
          <mxGeometry x="311" y="367" width="31" height="15" as="geometry" />
        </mxCell>
        <mxCell id="-fiAgcSim40ZvNmaRCxb-201" value="&lt;b&gt;&lt;font style=&quot;font-size: 9px;&quot;&gt;(1, N)&lt;/font&gt;&lt;/b&gt;" style="text;html=1;strokeColor=none;fillColor=none;align=center;verticalAlign=middle;whiteSpace=wrap;rounded=0;fontSize=11;fontFamily=Helvetica;fontColor=#FF0000;" vertex="1" parent="WIyWlLk6GJQsqaUBKTNV-1">
          <mxGeometry x="462" y="713" width="31" height="15" as="geometry" />
        </mxCell>
        <mxCell id="-fiAgcSim40ZvNmaRCxb-202" value="&lt;b&gt;&lt;font style=&quot;font-size: 9px;&quot;&gt;(0, N)&lt;/font&gt;&lt;/b&gt;" style="text;html=1;strokeColor=none;fillColor=none;align=center;verticalAlign=middle;whiteSpace=wrap;rounded=0;fontSize=11;fontFamily=Helvetica;fontColor=#FF0000;" vertex="1" parent="WIyWlLk6GJQsqaUBKTNV-1">
          <mxGeometry x="359" y="713" width="31" height="15" as="geometry" />
        </mxCell>
        <mxCell id="-fiAgcSim40ZvNmaRCxb-213" style="edgeStyle=orthogonalEdgeStyle;shape=connector;rounded=0;orthogonalLoop=1;jettySize=auto;html=1;exitX=0.5;exitY=1;exitDx=0;exitDy=0;entryX=0.5;entryY=0;entryDx=0;entryDy=0;labelBackgroundColor=default;strokeColor=default;fontFamily=Helvetica;fontSize=11;fontColor=default;endArrow=none;endFill=0;" edge="1" parent="WIyWlLk6GJQsqaUBKTNV-1" source="-fiAgcSim40ZvNmaRCxb-203" target="-fiAgcSim40ZvNmaRCxb-204">
          <mxGeometry relative="1" as="geometry" />
        </mxCell>
        <mxCell id="-fiAgcSim40ZvNmaRCxb-203" value="registra" style="shape=rhombus;perimeter=rhombusPerimeter;whiteSpace=wrap;html=1;align=center;fontFamily=Helvetica;fontSize=11;fontColor=#ffffff;fillColor=#a0522d;strokeColor=#6D1F00;" vertex="1" parent="WIyWlLk6GJQsqaUBKTNV-1">
          <mxGeometry x="500" y="418" width="71" height="40" as="geometry" />
        </mxCell>
        <mxCell id="-fiAgcSim40ZvNmaRCxb-206" style="shape=connector;rounded=0;orthogonalLoop=1;jettySize=auto;html=1;exitX=0.5;exitY=1;exitDx=0;exitDy=0;entryX=0.5;entryY=0;entryDx=0;entryDy=0;labelBackgroundColor=default;strokeColor=default;fontFamily=Helvetica;fontSize=11;fontColor=default;endArrow=none;endFill=0;" edge="1" parent="WIyWlLk6GJQsqaUBKTNV-1" source="-fiAgcSim40ZvNmaRCxb-204" target="-fiAgcSim40ZvNmaRCxb-205">
          <mxGeometry relative="1" as="geometry" />
        </mxCell>
        <mxCell id="-fiAgcSim40ZvNmaRCxb-207" style="shape=connector;rounded=0;orthogonalLoop=1;jettySize=auto;html=1;exitX=0.5;exitY=1;exitDx=0;exitDy=0;entryX=0.5;entryY=0;entryDx=0;entryDy=0;labelBackgroundColor=default;strokeColor=default;fontFamily=Helvetica;fontSize=11;fontColor=default;endArrow=none;endFill=0;" edge="1" parent="WIyWlLk6GJQsqaUBKTNV-1" source="-fiAgcSim40ZvNmaRCxb-204" target="-fiAgcSim40ZvNmaRCxb-187">
          <mxGeometry relative="1" as="geometry" />
        </mxCell>
        <mxCell id="-fiAgcSim40ZvNmaRCxb-210" style="edgeStyle=orthogonalEdgeStyle;shape=connector;rounded=0;orthogonalLoop=1;jettySize=auto;html=1;exitX=0;exitY=0.5;exitDx=0;exitDy=0;entryX=1;entryY=0.5;entryDx=0;entryDy=0;labelBackgroundColor=default;strokeColor=default;fontFamily=Helvetica;fontSize=11;fontColor=default;endArrow=none;endFill=0;" edge="1" parent="WIyWlLk6GJQsqaUBKTNV-1" source="-fiAgcSim40ZvNmaRCxb-204" target="-fiAgcSim40ZvNmaRCxb-209">
          <mxGeometry relative="1" as="geometry" />
        </mxCell>
        <mxCell id="-fiAgcSim40ZvNmaRCxb-204" value="pedido" style="shape=associativeEntity;whiteSpace=wrap;html=1;align=center;fontFamily=Helvetica;fontSize=11;fontColor=default;fillColor=#FFCC99;" vertex="1" parent="WIyWlLk6GJQsqaUBKTNV-1">
          <mxGeometry x="510" y="525" width="70" height="30" as="geometry" />
        </mxCell>
        <mxCell id="-fiAgcSim40ZvNmaRCxb-205" value="id" style="ellipse;whiteSpace=wrap;html=1;align=center;fontStyle=4;fontFamily=Helvetica;fontSize=11;fontColor=default;" vertex="1" parent="WIyWlLk6GJQsqaUBKTNV-1">
          <mxGeometry x="527" y="576" width="40" height="20" as="geometry" />
        </mxCell>
        <mxCell id="-fiAgcSim40ZvNmaRCxb-211" style="edgeStyle=orthogonalEdgeStyle;shape=connector;rounded=0;orthogonalLoop=1;jettySize=auto;html=1;exitX=0;exitY=0.5;exitDx=0;exitDy=0;entryX=1;entryY=0.75;entryDx=0;entryDy=0;labelBackgroundColor=default;strokeColor=default;fontFamily=Helvetica;fontSize=11;fontColor=default;endArrow=none;endFill=0;" edge="1" parent="WIyWlLk6GJQsqaUBKTNV-1" source="-fiAgcSim40ZvNmaRCxb-209" target="-fiAgcSim40ZvNmaRCxb-108">
          <mxGeometry relative="1" as="geometry" />
        </mxCell>
        <mxCell id="-fiAgcSim40ZvNmaRCxb-209" value="possui" style="shape=rhombus;perimeter=rhombusPerimeter;whiteSpace=wrap;html=1;align=center;fontFamily=Helvetica;fontSize=11;fontColor=#ffffff;fillColor=#a0522d;strokeColor=#6D1F00;" vertex="1" parent="WIyWlLk6GJQsqaUBKTNV-1">
          <mxGeometry x="400" y="520" width="71" height="40" as="geometry" />
        </mxCell>
        <mxCell id="-fiAgcSim40ZvNmaRCxb-214" value="&lt;b&gt;&lt;font style=&quot;font-size: 9px;&quot;&gt;(1, N)&lt;/font&gt;&lt;/b&gt;" style="text;html=1;strokeColor=none;fillColor=none;align=center;verticalAlign=middle;whiteSpace=wrap;rounded=0;fontSize=11;fontFamily=Helvetica;fontColor=#FF0000;" vertex="1" parent="WIyWlLk6GJQsqaUBKTNV-1">
          <mxGeometry x="480" y="541" width="31" height="15" as="geometry" />
        </mxCell>
        <mxCell id="-fiAgcSim40ZvNmaRCxb-215" value="&lt;b&gt;&lt;font style=&quot;font-size: 9px;&quot;&gt;(1, 1)&lt;/font&gt;&lt;/b&gt;" style="text;html=1;strokeColor=none;fillColor=none;align=center;verticalAlign=middle;whiteSpace=wrap;rounded=0;fontSize=11;fontFamily=Helvetica;fontColor=#FF0000;" vertex="1" parent="WIyWlLk6GJQsqaUBKTNV-1">
          <mxGeometry x="360" y="540" width="31" height="15" as="geometry" />
        </mxCell>
        <mxCell id="-fiAgcSim40ZvNmaRCxb-216" value="&lt;b&gt;&lt;font style=&quot;font-size: 9px;&quot;&gt;(1, N)&lt;/font&gt;&lt;/b&gt;" style="text;html=1;strokeColor=none;fillColor=none;align=center;verticalAlign=middle;whiteSpace=wrap;rounded=0;fontSize=11;fontFamily=Helvetica;fontColor=#FF0000;" vertex="1" parent="WIyWlLk6GJQsqaUBKTNV-1">
          <mxGeometry x="679" y="541" width="31" height="15" as="geometry" />
        </mxCell>
        <mxCell id="-fiAgcSim40ZvNmaRCxb-217" value="&lt;b&gt;&lt;font style=&quot;font-size: 9px;&quot;&gt;(0, N)&lt;/font&gt;&lt;/b&gt;" style="text;html=1;strokeColor=none;fillColor=none;align=center;verticalAlign=middle;whiteSpace=wrap;rounded=0;fontSize=11;fontFamily=Helvetica;fontColor=#FF0000;" vertex="1" parent="WIyWlLk6GJQsqaUBKTNV-1">
          <mxGeometry x="580.5" y="540" width="31" height="15" as="geometry" />
        </mxCell>
        <mxCell id="-fiAgcSim40ZvNmaRCxb-219" value="&lt;b&gt;&lt;font style=&quot;font-size: 9px;&quot;&gt;total&lt;br&gt;Não Exclusiva&lt;br&gt;&lt;/font&gt;&lt;/b&gt;" style="text;html=1;strokeColor=none;fillColor=none;align=left;verticalAlign=middle;whiteSpace=wrap;rounded=0;fontSize=11;fontFamily=Helvetica;fontColor=#FF0000;" vertex="1" parent="WIyWlLk6GJQsqaUBKTNV-1">
          <mxGeometry x="427" y="240" width="64" height="15" as="geometry" />
        </mxCell>
        <mxCell id="-fiAgcSim40ZvNmaRCxb-220" value="&lt;b&gt;&lt;font style=&quot;font-size: 9px;&quot;&gt;(1, 1)&lt;/font&gt;&lt;/b&gt;" style="text;html=1;strokeColor=none;fillColor=none;align=center;verticalAlign=middle;whiteSpace=wrap;rounded=0;fontSize=11;fontFamily=Helvetica;fontColor=#FF0000;" vertex="1" parent="WIyWlLk6GJQsqaUBKTNV-1">
          <mxGeometry x="635.5" y="247.5" width="31" height="15" as="geometry" />
        </mxCell>
        <mxCell id="-fiAgcSim40ZvNmaRCxb-221" value="&lt;b&gt;&lt;font style=&quot;font-size: 9px;&quot;&gt;(0, N)&lt;/font&gt;&lt;/b&gt;" style="text;html=1;strokeColor=none;fillColor=none;align=center;verticalAlign=middle;whiteSpace=wrap;rounded=0;fontSize=11;fontFamily=Helvetica;fontColor=#FF0000;" vertex="1" parent="WIyWlLk6GJQsqaUBKTNV-1">
          <mxGeometry x="559" y="318" width="31" height="15" as="geometry" />
        </mxCell>
        <mxCell id="-fiAgcSim40ZvNmaRCxb-223" value="&lt;b&gt;&lt;font style=&quot;font-size: 9px;&quot;&gt;(1, 1)&lt;/font&gt;&lt;/b&gt;" style="text;html=1;strokeColor=none;fillColor=none;align=center;verticalAlign=middle;whiteSpace=wrap;rounded=0;fontSize=11;fontFamily=Helvetica;fontColor=#FF0000;" vertex="1" parent="WIyWlLk6GJQsqaUBKTNV-1">
          <mxGeometry x="533.5" y="364" width="31" height="15" as="geometry" />
        </mxCell>
        <mxCell id="-fiAgcSim40ZvNmaRCxb-224" value="&lt;b&gt;&lt;font style=&quot;font-size: 9px;&quot;&gt;(0, N)&lt;/font&gt;&lt;/b&gt;" style="text;html=1;strokeColor=none;fillColor=none;align=center;verticalAlign=middle;whiteSpace=wrap;rounded=0;fontSize=11;fontFamily=Helvetica;fontColor=#FF0000;" vertex="1" parent="WIyWlLk6GJQsqaUBKTNV-1">
          <mxGeometry x="544" y="508" width="31" height="15" as="geometry" />
        </mxCell>
        <mxCell id="-fiAgcSim40ZvNmaRCxb-225" value="&lt;b&gt;&lt;font style=&quot;font-size: 9px;&quot;&gt;(1, 1)&lt;/font&gt;&lt;/b&gt;" style="text;html=1;strokeColor=none;fillColor=none;align=center;verticalAlign=middle;whiteSpace=wrap;rounded=0;fontSize=11;fontFamily=Helvetica;fontColor=#FF0000;" vertex="1" parent="WIyWlLk6GJQsqaUBKTNV-1">
          <mxGeometry x="456" y="364" width="31" height="15" as="geometry" />
        </mxCell>
        <mxCell id="-fiAgcSim40ZvNmaRCxb-226" value="&lt;b&gt;&lt;font style=&quot;font-size: 9px;&quot;&gt;(0, N)&lt;/font&gt;&lt;/b&gt;" style="text;html=1;strokeColor=none;fillColor=none;align=center;verticalAlign=middle;whiteSpace=wrap;rounded=0;fontSize=11;fontFamily=Helvetica;fontColor=#FF0000;" vertex="1" parent="WIyWlLk6GJQsqaUBKTNV-1">
          <mxGeometry x="369" y="510" width="31" height="15" as="geometry" />
        </mxCell>
        <mxCell id="-fiAgcSim40ZvNmaRCxb-232" style="shape=connector;rounded=0;orthogonalLoop=1;jettySize=auto;html=1;exitX=0.5;exitY=1;exitDx=0;exitDy=0;entryX=0.5;entryY=0;entryDx=0;entryDy=0;labelBackgroundColor=default;strokeColor=default;fontFamily=Helvetica;fontSize=11;fontColor=default;endArrow=none;endFill=0;" edge="1" parent="WIyWlLk6GJQsqaUBKTNV-1" source="-fiAgcSim40ZvNmaRCxb-227" target="-fiAgcSim40ZvNmaRCxb-194">
          <mxGeometry relative="1" as="geometry" />
        </mxCell>
        <mxCell id="-fiAgcSim40ZvNmaRCxb-227" value="id" style="ellipse;whiteSpace=wrap;html=1;align=center;fontStyle=4;fontFamily=Helvetica;fontSize=11;fontColor=default;" vertex="1" parent="WIyWlLk6GJQsqaUBKTNV-1">
          <mxGeometry x="807" y="150" width="40" height="20" as="geometry" />
        </mxCell>
        <mxCell id="-fiAgcSim40ZvNmaRCxb-231" style="shape=connector;rounded=0;orthogonalLoop=1;jettySize=auto;html=1;exitX=0.5;exitY=1;exitDx=0;exitDy=0;entryX=0.5;entryY=0;entryDx=0;entryDy=0;labelBackgroundColor=default;strokeColor=default;fontFamily=Helvetica;fontSize=11;fontColor=default;endArrow=none;endFill=0;" edge="1" parent="WIyWlLk6GJQsqaUBKTNV-1" source="-fiAgcSim40ZvNmaRCxb-228" target="-fiAgcSim40ZvNmaRCxb-194">
          <mxGeometry relative="1" as="geometry" />
        </mxCell>
        <mxCell id="-fiAgcSim40ZvNmaRCxb-228" value="valor" style="ellipse;whiteSpace=wrap;html=1;align=center;fontFamily=Helvetica;fontSize=11;fontColor=default;rotation=-15;" vertex="1" parent="WIyWlLk6GJQsqaUBKTNV-1">
          <mxGeometry x="770" y="170" width="40" height="20" as="geometry" />
        </mxCell>
        <mxCell id="-fiAgcSim40ZvNmaRCxb-234" style="shape=connector;rounded=0;orthogonalLoop=1;jettySize=auto;html=1;exitX=0;exitY=1;exitDx=0;exitDy=0;entryX=0.5;entryY=0;entryDx=0;entryDy=0;labelBackgroundColor=default;strokeColor=default;fontFamily=Helvetica;fontSize=11;fontColor=default;endArrow=none;endFill=0;" edge="1" parent="WIyWlLk6GJQsqaUBKTNV-1" source="-fiAgcSim40ZvNmaRCxb-229" target="-fiAgcSim40ZvNmaRCxb-194">
          <mxGeometry relative="1" as="geometry" />
        </mxCell>
        <mxCell id="-fiAgcSim40ZvNmaRCxb-229" value="Nome" style="ellipse;whiteSpace=wrap;html=1;align=center;fontFamily=Helvetica;fontSize=11;fontColor=default;rotation=30;" vertex="1" parent="WIyWlLk6GJQsqaUBKTNV-1">
          <mxGeometry x="899.75" y="181" width="50" height="20" as="geometry" />
        </mxCell>
        <mxCell id="-fiAgcSim40ZvNmaRCxb-233" style="shape=connector;rounded=0;orthogonalLoop=1;jettySize=auto;html=1;exitX=0.5;exitY=1;exitDx=0;exitDy=0;entryX=0.5;entryY=0;entryDx=0;entryDy=0;labelBackgroundColor=default;strokeColor=default;fontFamily=Helvetica;fontSize=11;fontColor=default;endArrow=none;endFill=0;" edge="1" parent="WIyWlLk6GJQsqaUBKTNV-1" source="-fiAgcSim40ZvNmaRCxb-230" target="-fiAgcSim40ZvNmaRCxb-194">
          <mxGeometry relative="1" as="geometry" />
        </mxCell>
        <mxCell id="-fiAgcSim40ZvNmaRCxb-230" value="descrição" style="ellipse;whiteSpace=wrap;html=1;align=center;fontFamily=Helvetica;fontSize=11;fontColor=default;rotation=20;" vertex="1" parent="WIyWlLk6GJQsqaUBKTNV-1">
          <mxGeometry x="848" y="149" width="60" height="20" as="geometry" />
        </mxCell>
        <mxCell id="-fiAgcSim40ZvNmaRCxb-239" style="edgeStyle=orthogonalEdgeStyle;shape=connector;rounded=0;orthogonalLoop=1;jettySize=auto;html=1;exitX=0;exitY=0.5;exitDx=0;exitDy=0;entryX=1;entryY=0.75;entryDx=0;entryDy=0;labelBackgroundColor=default;strokeColor=default;fontFamily=Helvetica;fontSize=11;fontColor=default;endArrow=none;endFill=0;" edge="1" parent="WIyWlLk6GJQsqaUBKTNV-1" source="-fiAgcSim40ZvNmaRCxb-237" target="-fiAgcSim40ZvNmaRCxb-100">
          <mxGeometry relative="1" as="geometry" />
        </mxCell>
        <mxCell id="-fiAgcSim40ZvNmaRCxb-237" value="pertence" style="shape=rhombus;perimeter=rhombusPerimeter;whiteSpace=wrap;html=1;align=center;fontFamily=Helvetica;fontSize=11;fontColor=#ffffff;fillColor=#a0522d;strokeColor=#6D1F00;" vertex="1" parent="WIyWlLk6GJQsqaUBKTNV-1">
          <mxGeometry x="700" y="334" width="71" height="40" as="geometry" />
        </mxCell>
        <mxCell id="-fiAgcSim40ZvNmaRCxb-240" value="&lt;b&gt;&lt;font style=&quot;font-size: 9px;&quot;&gt;(1, 1)&lt;/font&gt;&lt;/b&gt;" style="text;html=1;strokeColor=none;fillColor=none;align=center;verticalAlign=middle;whiteSpace=wrap;rounded=0;fontSize=11;fontFamily=Helvetica;fontColor=#FF0000;" vertex="1" parent="WIyWlLk6GJQsqaUBKTNV-1">
          <mxGeometry x="558" y="353" width="31" height="15" as="geometry" />
        </mxCell>
        <mxCell id="-fiAgcSim40ZvNmaRCxb-242" value="&lt;b&gt;&lt;font style=&quot;font-size: 9px;&quot;&gt;(0, N)&lt;/font&gt;&lt;/b&gt;" style="text;html=1;strokeColor=none;fillColor=none;align=center;verticalAlign=middle;whiteSpace=wrap;rounded=0;fontSize=11;fontFamily=Helvetica;fontColor=#FF0000;" vertex="1" parent="WIyWlLk6GJQsqaUBKTNV-1">
          <mxGeometry x="847" y="250" width="31" height="15" as="geometry" />
        </mxCell>
        <mxCell id="-fiAgcSim40ZvNmaRCxb-244" value="Avaliação" style="shape=ext;margin=3;double=1;whiteSpace=wrap;html=1;align=center;fontFamily=Helvetica;fontSize=11;fontColor=#ffffff;fillColor=#33590C;strokeColor=#2D7600;" vertex="1" parent="WIyWlLk6GJQsqaUBKTNV-1">
          <mxGeometry x="-61" y="324" width="100" height="40" as="geometry" />
        </mxCell>
        <mxCell id="-fiAgcSim40ZvNmaRCxb-245" value="Bar do Jânio" style="whiteSpace=wrap;html=1;align=center;fontFamily=Helvetica;fontSize=11;fillColor=#8A86FC;strokeColor=#6c8ebf;" vertex="1" parent="WIyWlLk6GJQsqaUBKTNV-1">
          <mxGeometry x="-61" y="161" width="100" height="40" as="geometry" />
        </mxCell>
        <mxCell id="-fiAgcSim40ZvNmaRCxb-250" style="edgeStyle=orthogonalEdgeStyle;shape=connector;rounded=0;orthogonalLoop=1;jettySize=auto;html=1;exitX=0;exitY=0.5;exitDx=0;exitDy=0;entryX=1;entryY=0.5;entryDx=0;entryDy=0;labelBackgroundColor=default;strokeColor=default;fontFamily=Helvetica;fontSize=11;fontColor=default;endArrow=none;endFill=0;" edge="1" parent="WIyWlLk6GJQsqaUBKTNV-1" source="-fiAgcSim40ZvNmaRCxb-247" target="-fiAgcSim40ZvNmaRCxb-244">
          <mxGeometry relative="1" as="geometry" />
        </mxCell>
        <mxCell id="-fiAgcSim40ZvNmaRCxb-247" value="efetuam" style="shape=rhombus;double=1;perimeter=rhombusPerimeter;whiteSpace=wrap;html=1;align=center;fontFamily=Helvetica;fontSize=11;fillColor=#e1d5e7;strokeColor=#9673a6;" vertex="1" parent="WIyWlLk6GJQsqaUBKTNV-1">
          <mxGeometry x="105" y="321" width="89" height="46" as="geometry" />
        </mxCell>
        <mxCell id="-fiAgcSim40ZvNmaRCxb-251" style="edgeStyle=orthogonalEdgeStyle;shape=connector;rounded=0;orthogonalLoop=1;jettySize=auto;html=1;exitX=0.5;exitY=1;exitDx=0;exitDy=0;entryX=0.5;entryY=0;entryDx=0;entryDy=0;labelBackgroundColor=default;strokeColor=default;fontFamily=Helvetica;fontSize=11;fontColor=default;endArrow=none;endFill=0;" edge="1" parent="WIyWlLk6GJQsqaUBKTNV-1" source="-fiAgcSim40ZvNmaRCxb-248" target="-fiAgcSim40ZvNmaRCxb-244">
          <mxGeometry relative="1" as="geometry" />
        </mxCell>
        <mxCell id="-fiAgcSim40ZvNmaRCxb-252" style="edgeStyle=orthogonalEdgeStyle;shape=connector;rounded=0;orthogonalLoop=1;jettySize=auto;html=1;exitX=0.5;exitY=0;exitDx=0;exitDy=0;entryX=0.5;entryY=1;entryDx=0;entryDy=0;labelBackgroundColor=default;strokeColor=default;fontFamily=Helvetica;fontSize=11;fontColor=default;endArrow=none;endFill=0;" edge="1" parent="WIyWlLk6GJQsqaUBKTNV-1" source="-fiAgcSim40ZvNmaRCxb-248" target="-fiAgcSim40ZvNmaRCxb-245">
          <mxGeometry relative="1" as="geometry" />
        </mxCell>
        <mxCell id="-fiAgcSim40ZvNmaRCxb-248" value="pertence" style="shape=rhombus;double=1;perimeter=rhombusPerimeter;whiteSpace=wrap;html=1;align=center;fontFamily=Helvetica;fontSize=11;fillColor=#e1d5e7;strokeColor=#9673a6;" vertex="1" parent="WIyWlLk6GJQsqaUBKTNV-1">
          <mxGeometry x="-55.5" y="244" width="89" height="46" as="geometry" />
        </mxCell>
        <mxCell id="-fiAgcSim40ZvNmaRCxb-253" value="&lt;b&gt;&lt;font style=&quot;font-size: 9px;&quot;&gt;(0, 1)&lt;/font&gt;&lt;/b&gt;" style="text;html=1;strokeColor=none;fillColor=none;align=center;verticalAlign=middle;whiteSpace=wrap;rounded=0;fontSize=11;fontFamily=Helvetica;fontColor=#FF0000;" vertex="1" parent="WIyWlLk6GJQsqaUBKTNV-1">
          <mxGeometry x="39" y="346.5" width="31" height="15" as="geometry" />
        </mxCell>
        <mxCell id="-fiAgcSim40ZvNmaRCxb-254" value="&lt;b&gt;&lt;font style=&quot;font-size: 9px;&quot;&gt;(1, 1)&lt;/font&gt;&lt;/b&gt;" style="text;html=1;strokeColor=none;fillColor=none;align=center;verticalAlign=middle;whiteSpace=wrap;rounded=0;fontSize=11;fontFamily=Helvetica;fontColor=#FF0000;" vertex="1" parent="WIyWlLk6GJQsqaUBKTNV-1">
          <mxGeometry x="228" y="346" width="31" height="15" as="geometry" />
        </mxCell>
        <mxCell id="-fiAgcSim40ZvNmaRCxb-255" value="&lt;b&gt;&lt;font style=&quot;font-size: 9px;&quot;&gt;(0, N)&lt;/font&gt;&lt;/b&gt;" style="text;html=1;strokeColor=none;fillColor=none;align=center;verticalAlign=middle;whiteSpace=wrap;rounded=0;fontSize=11;fontFamily=Helvetica;fontColor=#FF0000;" vertex="1" parent="WIyWlLk6GJQsqaUBKTNV-1">
          <mxGeometry x="-10" y="307" width="31" height="15" as="geometry" />
        </mxCell>
        <mxCell id="-fiAgcSim40ZvNmaRCxb-256" value="&lt;b&gt;&lt;font style=&quot;font-size: 9px;&quot;&gt;(1, 1)&lt;/font&gt;&lt;/b&gt;" style="text;html=1;strokeColor=none;fillColor=none;align=center;verticalAlign=middle;whiteSpace=wrap;rounded=0;fontSize=11;fontFamily=Helvetica;fontColor=#FF0000;" vertex="1" parent="WIyWlLk6GJQsqaUBKTNV-1">
          <mxGeometry x="-10" y="202.5" width="31" height="15" as="geometry" />
        </mxCell>
        <mxCell id="-fiAgcSim40ZvNmaRCxb-260" style="shape=connector;rounded=0;orthogonalLoop=1;jettySize=auto;html=1;exitX=0.5;exitY=1;exitDx=0;exitDy=0;entryX=0;entryY=0.5;entryDx=0;entryDy=0;labelBackgroundColor=default;strokeColor=default;fontFamily=Helvetica;fontSize=11;fontColor=default;endArrow=none;endFill=0;" edge="1" parent="WIyWlLk6GJQsqaUBKTNV-1" source="-fiAgcSim40ZvNmaRCxb-257" target="-fiAgcSim40ZvNmaRCxb-244">
          <mxGeometry relative="1" as="geometry" />
        </mxCell>
        <mxCell id="-fiAgcSim40ZvNmaRCxb-257" value="data" style="ellipse;whiteSpace=wrap;html=1;align=center;fontFamily=Helvetica;fontSize=11;fontColor=default;" vertex="1" parent="WIyWlLk6GJQsqaUBKTNV-1">
          <mxGeometry x="-101" y="295" width="40" height="20" as="geometry" />
        </mxCell>
        <mxCell id="-fiAgcSim40ZvNmaRCxb-261" style="shape=connector;rounded=0;orthogonalLoop=1;jettySize=auto;html=1;exitX=1;exitY=0.5;exitDx=0;exitDy=0;entryX=0;entryY=0.5;entryDx=0;entryDy=0;labelBackgroundColor=default;strokeColor=default;fontFamily=Helvetica;fontSize=11;fontColor=default;endArrow=none;endFill=0;" edge="1" parent="WIyWlLk6GJQsqaUBKTNV-1" source="-fiAgcSim40ZvNmaRCxb-258" target="-fiAgcSim40ZvNmaRCxb-244">
          <mxGeometry relative="1" as="geometry" />
        </mxCell>
        <mxCell id="-fiAgcSim40ZvNmaRCxb-258" value="rating" style="ellipse;whiteSpace=wrap;html=1;align=center;fontFamily=Helvetica;fontSize=11;fontColor=default;" vertex="1" parent="WIyWlLk6GJQsqaUBKTNV-1">
          <mxGeometry x="-141" y="320" width="40" height="20" as="geometry" />
        </mxCell>
        <mxCell id="-fiAgcSim40ZvNmaRCxb-262" style="shape=connector;rounded=0;orthogonalLoop=1;jettySize=auto;html=1;exitX=1;exitY=0;exitDx=0;exitDy=0;entryX=0;entryY=0.5;entryDx=0;entryDy=0;labelBackgroundColor=default;strokeColor=default;fontFamily=Helvetica;fontSize=11;fontColor=default;endArrow=none;endFill=0;" edge="1" parent="WIyWlLk6GJQsqaUBKTNV-1" source="-fiAgcSim40ZvNmaRCxb-259" target="-fiAgcSim40ZvNmaRCxb-244">
          <mxGeometry relative="1" as="geometry" />
        </mxCell>
        <mxCell id="-fiAgcSim40ZvNmaRCxb-259" value="comentários" style="ellipse;whiteSpace=wrap;html=1;align=center;fontFamily=Helvetica;fontSize=11;fontColor=default;" vertex="1" parent="WIyWlLk6GJQsqaUBKTNV-1">
          <mxGeometry x="-141" y="354" width="70" height="20" as="geometry" />
        </mxCell>
      </root>
    </mxGraphModel>
  </diagram>
</mxfile>
